<svg width="32" height="32" viewBox="0 0 32 32" fill="none" xmlns="http://www.w3.org/2000/svg">
  <defs>
    <linearGradient id="gradient" x1="0%" y1="0%" x2="100%" y2="100%">
      <stop offset="0%" style="stop-color:#667eea;stop-opacity:1" />
      <stop offset="100%" style="stop-color:#764ba2;stop-opacity:1" />
    </linearGradient>
  </defs>
  
  <!-- Background circle -->
  <circle cx="16" cy="16" r="15" fill="url(#gradient)" stroke="#fff" stroke-width="1"/>
  
  <!-- Pixel/Grid pattern representing JoyPixelLabs -->
  <g fill="#ffffff" opacity="0.9">
    <!-- Top row -->
    <rect x="8" y="8" width="3" height="3" rx="0.5"/>
    <rect x="12" y="8" width="3" height="3" rx="0.5"/>
    <rect x="16" y="8" width="3" height="3" rx="0.5"/>
    <rect x="20" y="8" width="3" height="3" rx="0.5"/>
    
    <!-- Middle row -->
    <rect x="6" y="12" width="3" height="3" rx="0.5"/>
    <rect x="10" y="12" width="3" height="3" rx="0.5"/>
    <rect x="14" y="12" width="3" height="3" rx="0.5"/>
    <rect x="18" y="12" width="3" height="3" rx="0.5"/>
    <rect x="22" y="12" width="3" height="3" rx="0.5"/>
    
    <!-- Bottom row -->
    <rect x="8" y="16" width="3" height="3" rx="0.5"/>
    <rect x="12" y="16" width="3" height="3" rx="0.5"/>
    <rect x="16" y="16" width="3" height="3" rx="0.5"/>
    <rect x="20" y="16" width="3" height="3" rx="0.5"/>
    
    <!-- Additional pixels for "J" shape -->
    <rect x="14" y="20" width="3" height="3" rx="0.5"/>
    <rect x="18" y="20" width="3" height="3" rx="0.5"/>
    <rect x="16" y="24" width="3" height="3" rx="0.5"/>
  </g>
</svg>
